<svg width="13" height="8" viewBox="0 0 13 8" fill="none" xmlns="http://www.w3.org/2000/svg">
<path d="M12.66 1.82482C12.6604 1.97921 12.6318 2.13175 12.5762 2.27124C12.5206 2.41073 12.4394 2.53363 12.3386 2.63089L7.12768 7.62233C6.97228 7.77433 6.77735 7.85742 6.57619 7.85742C6.37502 7.85742 6.1801 7.77433 6.0247 7.62233L0.813745 2.45521C0.636384 2.2798 0.524848 2.02773 0.503675 1.75447C0.482501 1.48121 0.553424 1.20913 0.70084 0.998083C0.848257 0.78704 1.06009 0.654324 1.28974 0.629129C1.5194 0.603934 1.74805 0.688325 1.92541 0.863737L6.58053 5.48314L11.2356 1.01875C11.3631 0.892381 11.5184 0.812107 11.683 0.787429C11.8476 0.762752 12.0147 0.794702 12.1646 0.8795C12.3144 0.964299 12.4407 1.0984 12.5285 1.26592C12.6163 1.43345 12.6619 1.6274 12.66 1.82482Z" fill="#FF56F6"/>
</svg>
