<svg width="28" height="28" viewBox="0 0 28 28" fill="none" xmlns="http://www.w3.org/2000/svg">
<path opacity="0.1" fill-rule="evenodd" clip-rule="evenodd" d="M0.627808 13.9218C0.627808 6.59542 6.56698 0.65625 13.8933 0.65625C21.2197 0.65625 27.1588 6.59542 27.1588 13.9218C27.1588 21.2481 21.2197 27.1873 13.8933 27.1873C6.56698 27.1873 0.627808 21.2481 0.627808 13.9218Z" fill="white"/>
<path fill-rule="evenodd" clip-rule="evenodd" d="M20.9682 13.9121C20.9682 14.3905 20.9195 14.8683 20.8239 15.3341C20.7306 15.7887 20.5924 16.2351 20.4114 16.6619C20.2345 17.081 20.0151 17.485 19.7588 17.8617C19.5062 18.236 19.2153 18.5872 18.8958 18.9073C18.5755 19.2261 18.2231 19.5162 17.849 19.7698C17.471 20.0243 17.0665 20.2434 16.6471 20.4211C16.2197 20.6011 15.7723 20.7391 15.318 20.8323C14.8517 20.9282 14.3721 20.9772 13.893 20.9772C13.4135 20.9772 12.934 20.9282 12.4683 20.8323C12.0133 20.7391 11.5659 20.6011 11.1389 20.4211C10.7195 20.2434 10.3146 20.0243 9.93662 19.7698C9.56247 19.5162 9.21009 19.2261 8.89053 18.9073C8.57063 18.5872 8.27972 18.236 8.02684 17.8617C7.77188 17.485 7.55214 17.081 7.37458 16.6619C7.19353 16.2351 7.05502 15.7887 6.96139 15.3341C6.86674 14.8683 6.81836 14.3905 6.81836 13.9121C6.81836 13.4332 6.86671 12.9544 6.96142 12.4897C7.05504 12.035 7.19356 11.5879 7.37461 11.1619C7.55217 10.7424 7.77191 10.3381 8.02687 9.96138C8.27975 9.58675 8.57066 9.23623 8.89055 8.91574C9.21012 8.59697 9.5625 8.30756 9.93665 8.05435C10.3146 7.79871 10.7195 7.57968 11.1389 7.40165C11.5659 7.22119 12.0133 7.08288 12.4683 6.99044C12.934 6.89523 13.4135 6.84692 13.893 6.84692C14.3722 6.84692 14.8517 6.89523 15.3181 6.99044C15.7724 7.08291 16.2197 7.22122 16.6471 7.40165C17.0665 7.57965 17.4711 7.79871 17.849 8.05435C18.2232 8.30756 18.5756 8.59697 18.8958 8.91574C19.2154 9.23623 19.5063 9.58675 19.7588 9.96138C20.0151 10.3381 20.2345 10.7424 20.4114 11.1619C20.5924 11.5879 20.7306 12.035 20.8239 12.4897C20.9195 12.9544 20.9682 13.4332 20.9682 13.9121ZM11.315 8.45485C9.63013 9.24935 8.37261 10.7997 7.98049 12.6681C8.13977 12.6694 10.6576 12.7012 13.5585 11.9315C12.5128 10.0762 11.3955 8.56217 11.315 8.45485ZM14.0591 12.8606C10.9481 13.7906 7.96287 13.7237 7.85579 13.7196C7.85404 13.7844 7.85094 13.8472 7.85094 13.912C7.85094 15.462 8.43652 16.875 9.39901 17.9434C9.39693 17.9403 11.0504 15.0111 14.311 13.9583C14.3897 13.9321 14.4699 13.9086 14.5493 13.8858C14.3977 13.5429 14.2322 13.1993 14.0591 12.8606ZM17.8832 9.38389C16.8195 8.44725 15.4227 7.87912 13.893 7.87912C13.402 7.87912 12.9256 7.93846 12.4693 8.04815C12.5598 8.1696 13.6947 9.67299 14.728 11.5676C17.0078 10.7141 17.8683 9.40595 17.8832 9.38389ZM14.9612 14.8856C14.9477 14.89 14.9343 14.8939 14.9211 14.8987C11.3562 16.1397 10.1921 18.6406 10.1795 18.6679C11.2052 19.4644 12.4918 19.945 13.893 19.945C14.7297 19.945 15.5267 19.7749 16.2519 19.4669C16.1624 18.9397 15.8114 17.092 14.9612 14.8856ZM17.2693 18.9156C18.6259 18.0014 19.5895 16.5498 19.8582 14.8683C19.7339 14.8283 18.0435 14.2939 16.0933 14.6061C16.8858 16.7809 17.2078 18.552 17.2693 18.9156ZM15.193 12.4666C15.3332 12.7543 15.4691 13.0471 15.5944 13.3414C15.639 13.447 15.6826 13.5505 15.725 13.654C17.8006 13.3932 19.8455 13.832 19.9329 13.8499C19.9191 12.4197 19.4067 11.107 18.559 10.0794C18.5476 10.0955 17.5785 11.4937 15.193 12.4666Z" fill="white"/>
</svg>
