<svg width="27" height="28" viewBox="0 0 27 28" fill="none" xmlns="http://www.w3.org/2000/svg">
<path opacity="0.1" fill-rule="evenodd" clip-rule="evenodd" d="M0.409424 13.9218C0.409424 6.59542 6.3486 0.65625 13.6749 0.65625C21.0013 0.65625 26.9404 6.59542 26.9404 13.9218C26.9404 21.2481 21.0013 27.1873 13.6749 27.1873C6.3486 27.1873 0.409424 21.2481 0.409424 13.9218Z" fill="white"/>
<path fill-rule="evenodd" clip-rule="evenodd" d="M13.6756 6.84692C11.7541 6.84692 11.513 6.85533 10.7583 6.88967C10.0051 6.92416 9.491 7.0434 9.04115 7.21836C8.57582 7.39907 8.18109 7.6408 7.78784 8.0342C7.39429 8.42745 7.15256 8.82218 6.97127 9.28736C6.79587 9.73736 6.67647 10.2516 6.64257 11.0045C6.60882 11.7592 6.59998 12.0005 6.59998 13.9219C6.59998 15.8434 6.60852 16.0838 6.64272 16.8385C6.67736 17.5917 6.7966 18.1058 6.97141 18.5556C7.15227 19.021 7.394 19.4157 7.7874 19.8089C8.1805 20.2025 8.57523 20.4448 9.04027 20.6255C9.49041 20.8005 10.0047 20.9197 10.7577 20.9542C11.5124 20.9885 11.7534 20.9969 13.6747 20.9969C15.5963 20.9969 15.8367 20.9885 16.5914 20.9542C17.3446 20.9197 17.8593 20.8005 18.3094 20.6255C18.7746 20.4448 19.1687 20.2025 19.5618 19.8089C19.9554 19.4157 20.1971 19.021 20.3784 18.5558C20.5523 18.1058 20.6717 17.5915 20.7071 16.8386C20.741 16.0839 20.7499 15.8434 20.7499 13.9219C20.7499 12.0005 20.741 11.7593 20.7071 11.0047C20.6717 10.2515 20.5523 9.73736 20.3784 9.28751C20.1971 8.82218 19.9554 8.42745 19.5618 8.0342C19.1683 7.64065 18.7747 7.39892 18.309 7.21836C17.8579 7.0434 17.3435 6.92416 16.5903 6.88967C15.8357 6.85533 15.5954 6.84692 13.6734 6.84692H13.6756ZM13.0409 8.12188C13.2292 8.12159 13.4394 8.12188 13.6755 8.12188C15.5646 8.12188 15.7885 8.12866 16.5344 8.16256C17.2243 8.1941 17.5986 8.30937 17.848 8.40621C18.1782 8.53444 18.4136 8.68773 18.6611 8.93536C18.9087 9.18298 19.062 9.41882 19.1905 9.74899C19.2874 9.99809 19.4028 10.3725 19.4342 11.0623C19.4681 11.8081 19.4754 12.0322 19.4754 13.9203C19.4754 15.8084 19.4681 16.0325 19.4342 16.7783C19.4026 17.4681 19.2874 17.8425 19.1905 18.0916C19.0623 18.4218 18.9087 18.6569 18.6611 18.9043C18.4134 19.152 18.1784 19.3053 17.848 19.4335C17.5989 19.5308 17.2243 19.6458 16.5344 19.6773C15.7886 19.7112 15.5646 19.7186 13.6755 19.7186C11.7864 19.7186 11.5625 19.7112 10.8167 19.6773C10.1268 19.6455 9.75245 19.5302 9.50291 19.4334C9.17274 19.3051 8.93691 19.1518 8.68929 18.9042C8.44166 18.6566 8.28837 18.4213 8.15984 18.091C8.063 17.8419 7.94759 17.4675 7.91619 16.7777C7.88229 16.0319 7.87551 15.8078 7.87551 13.9185C7.87551 12.0292 7.88229 11.8063 7.91619 11.0605C7.94774 10.3707 8.063 9.99632 8.15984 9.74692C8.28807 9.41675 8.44166 9.18092 8.68929 8.9333C8.93691 8.68567 9.17274 8.53238 9.50291 8.40385C9.75231 8.30657 10.1268 8.1916 10.8167 8.15991C11.4693 8.13043 11.7223 8.12159 13.0409 8.12011V8.12188ZM17.4521 9.29663C16.9834 9.29663 16.6031 9.67647 16.6031 10.1453C16.6031 10.6141 16.9834 10.9943 17.4521 10.9943C17.9209 10.9943 18.3011 10.6141 18.3011 10.1453C18.3011 9.67662 17.9209 9.29663 17.4521 9.29663ZM13.6756 10.2886C11.6691 10.2886 10.0423 11.9154 10.0423 13.9219C10.0423 15.9284 11.6691 17.5545 13.6756 17.5545C15.6821 17.5545 17.3083 15.9284 17.3083 13.9219C17.3083 11.9154 15.6821 10.2886 13.6756 10.2886ZM13.6756 11.5636C14.978 11.5636 16.0339 12.6194 16.0339 13.9219C16.0339 15.2243 14.978 16.2803 13.6756 16.2803C12.373 16.2803 11.3172 15.2243 11.3172 13.9219C11.3172 12.6194 12.373 11.5636 13.6756 11.5636Z" fill="white"/>
</svg>
