<svg width="28" height="28" viewBox="0 0 28 28" fill="none" xmlns="http://www.w3.org/2000/svg">
<path opacity="0.1" fill-rule="evenodd" clip-rule="evenodd" d="M0.846191 13.9218C0.846191 6.59542 6.78536 0.65625 14.1117 0.65625C21.438 0.65625 27.3772 6.59542 27.3772 13.9218C27.3772 21.2481 21.438 27.1873 14.1117 27.1873C6.78536 27.1873 0.846191 21.2481 0.846191 13.9218Z" fill="white"/>
<path fill-rule="evenodd" clip-rule="evenodd" d="M13.7144 11.4385L13.7422 11.8976L13.2783 11.8414C11.5895 11.6259 10.1142 10.8952 8.86151 9.66805L8.2491 9.05915L8.09135 9.5088C7.75731 10.5111 7.97073 11.5697 8.66665 12.2816C9.03781 12.6751 8.9543 12.7313 8.31405 12.4971C8.09135 12.4222 7.8965 12.3659 7.87794 12.394C7.81299 12.4596 8.03568 13.3121 8.21198 13.6493C8.45323 14.1177 8.94502 14.5767 9.4832 14.8484L9.93786 15.0638L9.39969 15.0732C8.88006 15.0732 8.86151 15.0826 8.91718 15.2793C9.10276 15.8882 9.8358 16.5346 10.6523 16.8156L11.2276 17.0123L10.7266 17.3121C9.98426 17.743 9.11204 17.9866 8.23982 18.0053C7.82226 18.0147 7.47894 18.0521 7.47894 18.0802C7.47894 18.1739 8.61097 18.6985 9.26978 18.9046C11.2462 19.5135 13.5938 19.2512 15.3568 18.2114C16.6094 17.4713 17.8621 16.0006 18.4467 14.5767C18.7621 13.8179 19.0776 12.4315 19.0776 11.7664C19.0776 11.3355 19.1055 11.2793 19.6251 10.7641C19.9313 10.4643 20.2189 10.1364 20.2746 10.0428C20.3674 9.86477 20.3581 9.86477 19.8849 10.024C19.0962 10.3051 18.9848 10.2676 19.3746 9.84604C19.6622 9.54627 20.0055 9.00295 20.0055 8.8437C20.0055 8.81559 19.8663 8.86243 19.7086 8.94674C19.5416 9.04042 19.1704 9.18093 18.8921 9.26524L18.391 9.42449L17.9363 9.11536C17.6858 8.94674 17.3332 8.75939 17.1476 8.70318C16.6744 8.57203 15.9506 8.59077 15.5238 8.74065C14.3639 9.1622 13.6309 10.2488 13.7144 11.4385Z" fill="white"/>
</svg>
