<svg width="27" height="28" viewBox="0 0 27 28" fill="none" xmlns="http://www.w3.org/2000/svg">
<path opacity="0.1" fill-rule="evenodd" clip-rule="evenodd" d="M0.0645142 13.9218C0.0645142 6.59542 6.00369 0.65625 13.33 0.65625C20.6564 0.65625 26.5955 6.59542 26.5955 13.9218C26.5955 21.2481 20.6564 27.1873 13.33 27.1873C6.00369 27.1873 0.0645142 21.2481 0.0645142 13.9218Z" fill="white"/>
<path fill-rule="evenodd" clip-rule="evenodd" d="M18.8582 9.36149C19.4671 9.52856 19.9466 10.0208 20.1093 10.646C20.405 11.779 20.405 14.143 20.405 14.143C20.405 14.143 20.405 16.5069 20.1093 17.64C19.9466 18.2651 19.4671 18.7574 18.8582 18.9245C17.7549 19.2281 13.3301 19.2281 13.3301 19.2281C13.3301 19.2281 8.90525 19.2281 7.80181 18.9245C7.19296 18.7574 6.71347 18.2651 6.55075 17.64C6.25513 16.5069 6.25513 14.143 6.25513 14.143C6.25513 14.143 6.25513 11.779 6.55075 10.646C6.71347 10.0208 7.19296 9.52856 7.80181 9.36149C8.90525 9.05786 13.3301 9.05786 13.3301 9.05786C13.3301 9.05786 17.7549 9.05786 18.8582 9.36149ZM12.0035 12.1531V16.5749L15.541 14.3641L12.0035 12.1531Z" fill="white"/>
</svg>
