<svg width="269" height="54" viewBox="0 0 269 54" fill="none" xmlns="http://www.w3.org/2000/svg">
<g clip-path="url(#clip0_2_434)">
<path d="M16.2259 22.2971L26.6778 11.9928L37.1353 22.3026L43.2169 16.3066L26.6778 0L10.1443 16.3011L16.2259 22.2971Z" fill="white" fill-opacity="0.5"/>
<path d="M11.9309 26.5301L5.84937 20.5342L-0.232474 26.5304L5.84907 32.5263L11.9309 26.5301Z" fill="white" fill-opacity="0.5"/>
<path d="M16.2259 30.7648L26.6779 41.0691L37.1349 30.7598L43.2199 36.7524L43.2169 36.7558L26.6779 53.0619L10.1439 36.7612L10.1354 36.7528L16.2259 30.7648Z" fill="white" fill-opacity="0.5"/>
<path d="M47.5067 32.5291L53.5885 26.533L47.507 20.5371L41.4251 26.5333L47.5067 32.5291Z" fill="white" fill-opacity="0.5"/>
<path d="M32.8465 26.5278H32.8491L26.6777 20.4434L22.117 24.9398H22.1166L21.5929 25.4566L20.5119 26.5223L20.5034 26.5307L20.5119 26.5395L26.6777 32.6185L32.8491 26.5341L32.852 26.5307L32.8465 26.5278Z" fill="white" fill-opacity="0.5"/>
<path d="M63.0693 12.8574H76.2966C79.5795 12.8574 82.062 13.6881 83.7445 15.3494C85.0465 16.636 85.6973 18.2306 85.6973 20.1329V20.2134C85.6973 21.0172 85.5965 21.7276 85.3938 22.3436C85.1914 22.9605 84.9211 23.5158 84.5832 24.0116C84.2461 24.5078 83.8541 24.9433 83.4087 25.318C82.9627 25.6935 82.4837 26.0153 81.9706 26.2827C83.6208 26.8996 84.9198 27.7366 85.8669 28.7952C86.8136 29.8542 87.2875 31.3215 87.2875 33.1969V33.277C87.2875 34.5636 87.0367 35.6889 86.5347 36.6541C86.0327 37.6184 85.3134 38.4226 84.377 39.0659C83.4405 39.7093 82.3145 40.1912 80.9984 40.5131C79.6824 40.8345 78.2239 40.995 76.6235 40.995H63.0693V12.8574ZM74.9742 24.2329C76.3608 24.2329 77.4618 23.9991 78.2766 23.5297C79.0919 23.0607 79.4996 22.3034 79.4996 21.2586V21.1781C79.4996 20.2406 79.1459 19.524 78.4394 19.0278C77.7325 18.532 76.7132 18.2839 75.3818 18.2839H69.1846V24.2329H74.9742ZM76.646 35.569C78.0322 35.569 79.1187 35.3218 79.9077 34.8255C80.6958 34.3298 81.0903 33.559 81.0903 32.5138V32.4338C81.0903 31.4958 80.723 30.7524 79.9893 30.2025C79.2552 29.6539 78.073 29.379 76.442 29.379H69.1846V35.5694H76.646V35.569Z" fill="white" fill-opacity="0.5"/>
<path d="M95.1652 12.8574H101.444V40.9959H95.1652V12.8574Z" fill="white" fill-opacity="0.5"/>
<path d="M110.955 12.8574H116.744L130.117 30.1828V12.8574H136.314V40.9959H130.974L117.152 23.1081V40.9959H110.955V12.8574Z" fill="white" fill-opacity="0.5"/>
<path d="M155.324 12.6567H161.113L173.345 40.9959H166.781L164.171 34.6852H152.103L149.494 40.9959H143.091L155.324 12.6567ZM161.929 29.2177L158.137 20.0932L154.346 29.2177H161.929Z" fill="white" fill-opacity="0.5"/>
<path d="M180.123 12.8574H185.913L199.286 30.1828V12.8574H205.483V40.9959H200.143L186.321 23.1081V40.9959H180.123V12.8574Z" fill="white" fill-opacity="0.5"/>
<path d="M228.081 41.478C225.987 41.478 224.044 41.1025 222.25 40.3528C220.455 39.603 218.906 38.5775 217.602 37.2775C216.297 35.9778 215.277 34.4435 214.544 32.6749C213.81 30.9059 213.443 29.0167 213.443 27.0067V26.9266C213.443 24.9167 213.81 23.0345 214.544 21.2789C215.278 19.5237 216.297 17.9827 217.602 16.6563C218.906 15.3299 220.469 14.2842 222.29 13.5206C224.111 12.757 226.124 12.3752 228.325 12.3752C229.656 12.3752 230.872 12.483 231.973 12.6967C233.074 12.9117 234.073 13.2059 234.97 13.581C235.868 13.9565 236.696 14.412 237.458 14.9476C238.218 15.4841 238.925 16.0733 239.577 16.7167L235.582 21.2588C234.467 20.2676 233.332 19.4898 232.178 18.9274C231.022 18.365 229.724 18.0833 228.284 18.0833C227.088 18.0833 225.98 18.3113 224.961 18.7669C223.942 19.2224 223.065 19.8519 222.331 20.6557C221.598 21.4595 221.027 22.3912 220.618 23.4494C220.211 24.5085 220.008 25.6404 220.008 26.8462V26.9262C220.008 28.132 220.211 29.2715 220.618 30.3427C221.027 31.4152 221.59 32.3527 222.311 33.1565C223.031 33.9603 223.901 34.5973 224.92 35.0663C225.94 35.5357 227.061 35.7695 228.284 35.7695C229.915 35.7695 231.293 35.4749 232.422 34.8853C233.55 34.2964 234.671 33.4922 235.786 32.4734L239.781 36.4531C239.047 37.2305 238.285 37.9275 237.498 38.5431C236.71 39.16 235.847 39.6889 234.909 40.1315C233.971 40.5732 232.944 40.9089 231.831 41.1361C230.716 41.3636 229.466 41.478 228.081 41.478Z" fill="white" fill-opacity="0.5"/>
<path d="M247.171 12.8574H268.658V18.3647H253.369V24.0728H266.824V29.5797H253.369V35.489H268.863V40.9959H247.171V12.8574Z" fill="white" fill-opacity="0.5"/>
</g>
<defs>
<clipPath id="clip0_2_434">
<rect width="268.658" height="53.062" fill="white"/>
</clipPath>
</defs>
</svg>
