<svg width="200" height="32" viewBox="0 0 200 32" fill="none" xmlns="http://www.w3.org/2000/svg">
<g clip-path="url(#clip0_2_437)">
<path d="M17.5035 0.696777H36.1229C36.1116 0.93545 36.0265 1.16531 35.8787 1.35651C35.2484 2.40413 34.6811 3.49452 34.0618 4.54214C33.1856 6.04638 32.3662 7.57812 31.4759 9.07625C30.9118 10.1544 30.2752 11.199 29.6732 12.2588C26.0552 12.2588 22.4372 12.2588 18.8192 12.2588C18.6301 12.2588 18.4426 12.268 18.2535 12.2787C18.0959 12.6819 17.8344 13.0346 17.6232 13.4134C17.3475 13.8471 17.1237 14.3098 16.8511 14.7435C16.5627 15.3269 16.164 15.8492 15.8741 16.431C15.2753 17.416 14.7159 18.4163 14.1297 19.412C13.5183 20.4301 12.9206 21.4625 12.3365 22.5091C12.0893 22.88 11.8615 23.2628 11.6541 23.656C10.4298 25.7207 9.24477 27.8037 8.01881 29.8669C7.91483 30.0887 7.77785 30.2945 7.61226 30.4777C5.51647 30.464 3.42068 30.4777 1.32489 30.4777C1.06676 30.4825 0.810158 30.5174 0.560631 30.5816C0.560631 30.0196 0.948273 29.5691 1.20985 29.0972C1.52501 28.4634 1.94574 27.8755 2.26248 27.2402C4.77428 22.8847 7.25929 18.514 9.76321 14.1556C10.3305 13.2087 10.8174 12.242 11.3878 11.3135C12.1001 10.0918 12.7635 8.8426 13.5057 7.63462C13.7421 7.12913 14.0604 6.66641 14.3204 6.17314C15.2438 4.58032 16.1499 2.97834 17.0701 1.38552C17.1793 1.13677 17.3253 0.904752 17.5035 0.696777Z" fill="white" fill-opacity="0.5"/>
<path d="M39.0791 7.10938C40.3192 5.00955 41.5168 2.88681 42.7743 0.796143H49.4997C49.5977 0.800945 49.6949 0.81579 49.7897 0.84043C49.5659 1.16877 49.3784 1.51696 49.1814 1.85904C47.5594 4.6802 45.9421 7.50288 44.3296 10.3271C43.652 11.477 43.0217 12.6529 42.3346 13.7968L42.2669 13.8197L42.2543 13.9632C39.0922 19.461 35.9406 24.9628 32.7996 30.4687C26.6256 30.4748 20.4512 30.4748 14.2762 30.4687C14.6276 29.757 15.0436 29.0774 15.4344 28.3856C17.193 25.2519 18.9973 22.1457 20.7306 19.012C24.5241 19.0059 28.3175 19.0059 32.1109 19.012C34.4541 15.0567 36.7469 11.0708 39.0728 7.10938H39.0791Z" fill="white" fill-opacity="0.5"/>
<path d="M108.488 0.715332V30.8307H113.872V9.65374L123.694 23.6012L133.437 9.32235V30.8307H138.979V0.715332H133.018L123.733 14.617L114.345 0.715332H108.488Z" fill="white" fill-opacity="0.5"/>
<path d="M83.3019 8.48267H86.8206V31.0845H83.3019V8.48267Z" fill="white" fill-opacity="0.5"/>
<path d="M82.9993 0.109131H87.1231V3.90105H82.9993V0.109131Z" fill="white" fill-opacity="0.5"/>
<path d="M93.5444 2.00586H97.2207V8.48251H104.469V11.6391H97.2207V25.0658C97.2144 25.5832 97.3382 26.0943 97.5816 26.5548C98.204 27.7002 99.8948 29.0593 104.469 27.4711V30.3971C104.469 30.3971 100.293 32.6878 96.5116 30.6018C96.5116 30.6018 94.6333 29.829 93.8438 27.2206C93.6387 26.5219 93.5379 25.7984 93.5444 25.0719V11.5887L90.4448 11.6391V8.48251H93.5696L93.5444 2.00586Z" fill="white" fill-opacity="0.5"/>
<path d="M144.652 0.715332V31.0339H168.025V26.147H150.351V18.1035H165.925V13.2929H150.325V5.63276H167.843V0.715332H144.652Z" fill="white" fill-opacity="0.5"/>
<path d="M170.219 0.715332H176.876L184.519 11.3596L192.102 0.715332H198.759L187.886 15.5012L199.437 31.0079H192.425L184.546 19.6825L176.286 31.0339H169.628L181.013 15.6356L170.219 0.715332Z" fill="white" fill-opacity="0.5"/>
<path d="M72.5329 15.304C72.5329 15.304 77.681 13.421 77.3659 7.99962C77.3659 7.99962 77.3233 2.78593 71.266 1.17631C70.2589 0.914785 69.2201 0.785351 68.1775 0.791467H53.6503L53.6897 30.9069H69.3294C69.3294 30.9069 78.4815 30.716 79.126 22.813C79.126 22.813 79.7816 17.2893 72.5329 15.304ZM57.4054 3.90075H66.6773C73.9512 3.87631 73.7416 8.83955 73.7416 8.83955C73.8503 14.5022 67.1753 14.3877 67.1753 14.3877H57.4054V3.90075ZM68.7511 27.7243H57.4054V17.2389H68.2531C75.5269 17.2129 75.3174 22.1762 75.3174 22.1762C75.4261 27.8388 68.7511 27.7243 68.7511 27.7243Z" fill="white" fill-opacity="0.5"/>
</g>
<defs>
<clipPath id="clip0_2_437">
<rect width="198.876" height="31.3692" fill="white" transform="translate(0.560669 0.109131)"/>
</clipPath>
</defs>
</svg>
