<svg width="355" height="54" viewBox="0 0 355 54" fill="none" xmlns="http://www.w3.org/2000/svg">
<path d="M95.4274 36.3614V27.8238C95.4274 23.4057 91.8137 19.8322 87.2957 19.8322H86.944C85.1873 19.8322 83.4302 20.4277 82.5771 21.4702V11.3439C82.5771 10.1023 81.6232 9.45776 80.6693 9.45776C79.7154 9.45776 78.762 10.1027 78.762 11.3439V42.566C78.762 43.7575 79.7158 44.353 80.6693 44.353C81.5229 44.353 82.3761 43.8563 82.5267 42.8648C83.2292 43.5591 84.685 44.353 86.8433 44.353H87.2953C91.763 44.353 95.4274 40.7795 95.4274 36.3614ZM91.6127 36.3614C91.6127 38.6945 89.7054 40.5811 87.2957 40.5811H86.8437C84.5851 40.5811 82.5775 39.0917 82.5775 36.6594V27.4266C82.5775 25.1429 84.5855 23.6045 86.8437 23.6045H87.2957C89.7054 23.6045 91.6127 25.4911 91.6127 27.8238V36.3614ZM111.44 42.4664C111.44 41.5236 110.838 40.5811 109.533 40.5811C107.976 40.5309 106.772 39.3399 106.772 37.8006V11.3439C106.772 10.1023 105.819 9.45776 104.864 9.45776C103.911 9.45776 102.957 10.1027 102.957 11.3439V37.8006C102.957 41.424 105.869 44.353 109.533 44.353C110.838 44.353 111.44 43.4097 111.44 42.4664ZM133.325 36.3614V27.8238C133.325 23.4057 129.711 19.8322 125.244 19.8322H124.742C120.274 19.8322 116.66 23.4057 116.66 27.8238V36.3614C116.66 40.7795 120.274 44.353 124.742 44.353H125.244C129.711 44.353 133.325 40.7795 133.325 36.3614ZM129.51 36.3614C129.51 38.6945 127.603 40.5811 125.244 40.5811H124.792C122.383 40.5811 120.475 38.6945 120.475 36.3614V27.8238C120.475 25.4911 122.383 23.6045 124.742 23.6045H125.244C127.603 23.6045 129.51 25.4911 129.51 27.8238V36.3614ZM156.465 36.3614C156.465 35.0712 155.512 34.4259 154.558 34.4259C153.655 34.4259 152.7 35.0712 152.65 36.3614C152.55 38.6945 150.743 40.5811 148.384 40.5811H147.932C145.522 40.5811 143.615 38.6945 143.615 36.3614V27.8238C143.615 25.4911 145.522 23.6045 147.882 23.6045H148.383C150.743 23.6045 152.55 25.3417 152.65 27.8731C152.7 29.1148 153.654 29.7103 154.557 29.7103C155.511 29.7103 156.465 29.0646 156.465 27.8238C156.465 23.4057 152.801 19.8322 148.383 19.8322H147.881C143.464 19.8322 139.8 23.3563 139.8 27.8238V36.3614C139.8 40.7795 143.414 44.353 147.881 44.353H148.383C152.851 44.353 156.465 40.7795 156.465 36.3614ZM180.509 42.4664C180.509 42.1689 180.459 41.8219 180.258 41.5236L173.381 29.6103L179.605 23.0584C180.007 22.6612 180.157 22.2147 180.157 21.7677C180.157 20.7743 179.303 19.8318 178.2 19.8318C177.748 19.8318 177.246 20.0298 176.844 20.4771L167.307 30.5038V11.3439C167.307 10.1023 166.353 9.45776 165.399 9.45776C164.446 9.45776 163.492 10.1027 163.492 11.3439V42.4664C163.492 43.7077 164.446 44.353 165.399 44.353C166.353 44.353 167.307 43.7077 167.307 42.4664V36.0627L170.67 32.4891L176.944 43.3595C177.346 44.0554 177.948 44.353 178.551 44.353C179.706 44.353 180.509 43.4591 180.509 42.4664ZM202.192 36.3614C202.192 35.0712 201.238 34.4259 200.285 34.4259C199.382 34.4259 198.427 35.0712 198.377 36.3614C198.277 38.6945 196.47 40.5811 194.111 40.5811H193.659C191.249 40.5811 189.342 38.6945 189.342 36.3614V27.8238C189.342 25.4911 191.249 23.6045 193.609 23.6045H194.111C196.47 23.6045 198.277 25.3417 198.377 27.8731C198.427 29.1148 199.382 29.7103 200.285 29.7103C201.239 29.7103 202.192 29.0646 202.192 27.8238C202.192 23.4057 198.528 19.8322 194.111 19.8322H193.609C189.192 19.8322 185.528 23.3563 185.528 27.8238V36.3614C185.528 40.7795 189.142 44.353 193.609 44.353H194.111C198.579 44.353 202.192 40.7795 202.192 36.3614ZM225.885 42.4664V27.8238C225.885 23.4057 222.271 19.8322 217.803 19.8322H217.402C215.645 19.8322 213.887 20.4277 213.033 21.3212V11.3439C213.033 10.1023 212.08 9.45776 211.128 9.45776C210.173 9.45776 209.22 10.1027 209.22 11.3439V42.4664C209.22 43.7077 210.174 44.353 211.128 44.353C212.081 44.353 213.033 43.7077 213.033 42.4664V27.5756C213.033 24.9939 215.294 23.6045 217.603 23.6045C219.811 23.6045 222.069 24.9449 222.069 27.8238V42.4664C222.069 43.7077 223.023 44.353 223.977 44.353C224.931 44.353 225.885 43.7077 225.885 42.4664ZM250.983 42.4183C250.983 41.6232 250.48 40.8289 249.376 40.6305C248.473 40.4819 248.071 39.8852 248.071 38.9921V27.4756C248.071 23.207 244.658 19.8318 240.19 19.8318H239.839C237.178 19.8318 233.966 20.8743 232.359 24.4482C232.209 24.7458 232.158 25.0433 232.158 25.3417C232.158 26.3841 233.113 27.0788 234.066 27.0788C234.719 27.0788 235.371 26.7813 235.773 26.0858C236.727 24.4478 237.781 23.6041 239.839 23.6041H240.191C242.399 23.6041 244.256 24.6964 244.256 27.6242C244.256 27.8727 244.256 28.2699 244.107 28.4683C242.902 30.1564 231.758 28.7658 231.406 36.6088V37.2043C231.406 41.8215 235.422 44.3526 239.488 44.3526H239.94C241.998 44.3526 243.906 43.6081 245.361 42.3681C246.014 43.3109 247.068 44.0554 248.774 44.3032C248.875 44.3526 249.025 44.3526 249.126 44.3526C250.33 44.353 250.983 43.4097 250.983 42.4183ZM244.256 36.3614C244.256 38.6945 242.298 40.5811 239.94 40.5811H239.488C236.928 40.5811 235.221 39.2407 235.221 37.1059V36.7084C235.371 33.2336 240.542 33.4328 244.256 32.4402V36.3614ZM260.821 42.4664V21.7184C260.821 20.4771 259.866 19.8322 258.913 19.8322C257.96 19.8322 257.006 20.4775 257.006 21.7184V42.4664C257.006 43.7077 257.96 44.353 258.913 44.353C259.866 44.353 260.821 43.7077 260.821 42.4664ZM285.516 42.4664V27.8238C285.516 22.3633 281.752 19.8322 277.485 19.8322H277.033C275.276 19.8322 273.62 20.4277 272.716 21.3212C272.517 20.3277 271.662 19.8322 270.809 19.8322C269.805 19.8322 268.851 20.5269 268.851 21.7184V42.4664C268.851 43.7077 269.805 44.353 270.759 44.353C271.713 44.353 272.666 43.7077 272.666 42.4664V27.8238C272.666 25.4911 274.624 23.6045 276.983 23.6045H277.435C279.844 23.6045 281.752 25.4911 281.752 27.8238V42.4664C281.752 43.7077 282.706 44.353 283.659 44.353C284.613 44.353 285.516 43.7077 285.516 42.4664ZM305.214 42.4664V21.7184C305.214 20.4771 304.26 19.8322 303.307 19.8322C302.354 19.8322 301.4 20.4775 301.4 21.7184V42.4664C301.4 43.7077 302.354 44.353 303.307 44.353C304.261 44.353 305.214 43.7077 305.214 42.4664ZM329.358 36.3614V27.8238C329.358 23.4057 325.744 19.8322 321.277 19.8322H320.774C316.307 19.8322 312.694 23.4057 312.694 27.8238V36.3614C312.694 40.7795 316.307 44.353 320.774 44.353H321.277C325.744 44.353 329.358 40.7795 329.358 36.3614ZM325.543 36.3614C325.543 38.6945 323.636 40.5811 321.277 40.5811H320.825C318.414 40.5811 316.508 38.6945 316.508 36.3614V27.8238C316.508 25.4911 318.414 23.6045 320.774 23.6045H321.277C323.636 23.6045 325.543 25.4911 325.543 27.8238V36.3614Z" fill="white" fill-opacity="0.5"/>
<path d="M40.9636 25.6938C39.8013 25.6938 38.856 26.629 38.856 27.778C38.856 28.927 39.8017 29.8617 40.9636 29.8617C42.1255 29.8617 43.0715 28.927 43.0715 27.778C43.0715 26.629 42.1259 25.6938 40.9636 25.6938Z" fill="white" fill-opacity="0.5"/>
<path d="M50.7084 19.9116C49.5461 19.9116 48.6017 20.8467 48.6017 21.9957C48.6017 23.1451 49.5465 24.0794 50.7084 24.0794C51.8704 24.0794 52.8168 23.1447 52.8168 21.9957C52.8172 20.8467 51.8708 19.9116 50.7084 19.9116Z" fill="white" fill-opacity="0.5"/>
<path d="M60.4537 14.1296C59.2918 14.1296 58.3461 15.0643 58.3461 16.2133C58.3461 17.3628 59.2918 18.2987 60.4537 18.2987C61.6164 18.2987 62.5612 17.3632 62.5612 16.2133C62.5612 15.0643 61.6164 14.1296 60.4537 14.1296Z" fill="white" fill-opacity="0.5"/>
<path d="M31.2181 8.34717C30.0562 8.34717 29.1106 9.28228 29.1106 10.4317C29.1106 11.5807 30.0562 12.5154 31.2181 12.5154C32.3805 12.5154 33.3261 11.5807 33.3261 10.4317C33.3261 9.28228 32.3809 8.34717 31.2181 8.34717Z" fill="white" fill-opacity="0.5"/>
<path d="M40.9638 2.56494C39.8015 2.56494 38.8563 3.50047 38.8563 4.64946C38.8563 5.79887 39.8019 6.73399 40.9638 6.73399C42.1257 6.73399 43.0717 5.79887 43.0717 4.64946C43.0717 3.50047 42.1261 2.56494 40.9638 2.56494Z" fill="white" fill-opacity="0.5"/>
<path d="M40.9636 14.1296C39.8013 14.1296 38.856 15.0643 38.856 16.2133C38.856 17.3628 39.8017 18.2987 40.9636 18.2987C42.1255 18.2987 43.0715 17.3632 43.0715 16.2133C43.0715 15.0643 42.1259 14.1296 40.9636 14.1296Z" fill="white" fill-opacity="0.5"/>
<path d="M50.7084 8.34717C49.5461 8.34717 48.6017 9.28228 48.6017 10.4317C48.6017 11.5807 49.5465 12.5154 50.7084 12.5154C51.8704 12.5154 52.8168 11.5807 52.8168 10.4317C52.8172 9.28228 51.8708 8.34717 50.7084 8.34717Z" fill="white" fill-opacity="0.5"/>
<path d="M50.7084 31.4763C49.5461 31.4763 48.6017 32.411 48.6017 33.5596C48.6017 34.709 49.5465 35.6437 50.7084 35.6437C51.8704 35.6437 52.8168 34.709 52.8168 33.5596C52.8172 32.411 51.8708 31.4763 50.7084 31.4763Z" fill="white" fill-opacity="0.5"/>
<path d="M60.4537 25.6938C59.2918 25.6938 58.3461 26.629 58.3461 27.778C58.3461 28.927 59.2918 29.8617 60.4537 29.8617C61.6164 29.8617 62.5612 28.927 62.5612 27.778C62.5612 26.629 61.6164 25.6938 60.4537 25.6938Z" fill="white" fill-opacity="0.5"/>
<path d="M50.7084 43.04C49.5461 43.04 48.6017 43.9747 48.6017 45.1242C48.6017 46.2732 49.5465 47.2079 50.7084 47.2079C51.8704 47.2079 52.8168 46.2732 52.8168 45.1242C52.8172 43.9747 51.8708 43.04 50.7084 43.04Z" fill="white" fill-opacity="0.5"/>
<path d="M60.4537 37.2578C59.2918 37.2578 58.3461 38.1925 58.3461 39.3419C58.3461 40.4909 59.2918 41.4256 60.4537 41.4256C61.6164 41.4256 62.5612 40.4909 62.5612 39.3419C62.5612 38.1925 61.6164 37.2578 60.4537 37.2578Z" fill="white" fill-opacity="0.5"/>
<path d="M40.9636 48.8223C39.8013 48.8223 38.856 49.7574 38.856 50.9064C38.856 52.055 39.8017 52.9901 40.9636 52.9901C42.1255 52.9901 43.0715 52.055 43.0715 50.9064C43.0715 49.7574 42.1259 48.8223 40.9636 48.8223Z" fill="white" fill-opacity="0.5"/>
<path d="M40.9636 37.2578C39.8013 37.2578 38.856 38.1925 38.856 39.3419C38.856 40.4909 39.8017 41.4256 40.9636 41.4256C42.1255 41.4256 43.0715 40.4909 43.0715 39.3419C43.0715 38.1925 42.1259 37.2578 40.9636 37.2578Z" fill="white" fill-opacity="0.5"/>
<path d="M31.2182 19.9116C30.0563 19.9116 29.1106 20.8467 29.1106 21.9957C29.1106 23.1451 30.0563 24.0794 31.2182 24.0794C32.3805 24.0794 33.3261 23.1447 33.3261 21.9957C33.3261 20.8467 32.3809 19.9116 31.2182 19.9116Z" fill="white" fill-opacity="0.5"/>
<path d="M31.2182 43.04C30.0563 43.04 29.1106 43.9747 29.1106 45.1242C29.1106 46.2732 30.0563 47.2079 31.2182 47.2079C32.3805 47.2079 33.3261 46.2732 33.3261 45.1242C33.3261 43.9747 32.3809 43.04 31.2182 43.04Z" fill="white" fill-opacity="0.5"/>
<path d="M31.2182 31.4763C30.0563 31.4763 29.1106 32.411 29.1106 33.5596C29.1106 34.709 30.0563 35.6437 31.2182 35.6437C32.3805 35.6437 33.3261 34.709 33.3261 33.5596C33.3261 32.411 32.3809 31.4763 31.2182 31.4763Z" fill="white" fill-opacity="0.5"/>
<path d="M21.4733 14.1296C20.311 14.1296 19.3662 15.0643 19.3662 16.2133C19.3662 17.3628 20.3114 18.2987 21.4733 18.2987C22.6352 18.2987 23.5813 17.3632 23.5813 16.2133C23.5813 15.0643 22.6352 14.1296 21.4733 14.1296Z" fill="white" fill-opacity="0.5"/>
<path d="M21.4733 37.2578C20.311 37.2578 19.3662 38.1925 19.3662 39.3419C19.3662 40.4909 20.3114 41.4256 21.4733 41.4256C22.6352 41.4256 23.5813 40.4909 23.5813 39.3419C23.5813 38.1925 22.6352 37.2578 21.4733 37.2578Z" fill="white" fill-opacity="0.5"/>
<path d="M21.4733 25.6938C20.311 25.6938 19.3662 26.629 19.3662 27.778C19.3662 28.927 20.3114 29.8617 21.4733 29.8617C22.6352 29.8617 23.5813 28.927 23.5813 27.778C23.5813 26.629 22.6352 25.6938 21.4733 25.6938Z" fill="white" fill-opacity="0.5"/>
<path d="M258.882 9.354C257.825 9.354 256.964 10.2042 256.964 11.25C256.964 12.2957 257.825 13.1463 258.882 13.1463C259.939 13.1463 260.8 12.2957 260.8 11.25C260.8 10.2042 259.939 9.354 258.882 9.354Z" fill="white" fill-opacity="0.5"/>
<path d="M303.29 9.354C302.233 9.354 301.372 10.2042 301.372 11.25C301.372 12.2957 302.233 13.1463 303.29 13.1463C304.348 13.1463 305.208 12.2957 305.208 11.25C305.208 10.2042 304.348 9.354 303.29 9.354Z" fill="white" fill-opacity="0.5"/>
<path d="M293.23 40.7166C292.179 40.7166 291.323 41.5623 291.323 42.6023C291.323 43.6423 292.179 44.4889 293.23 44.4889C294.282 44.4889 295.138 43.6423 295.138 42.6023C295.138 41.5623 294.282 40.7166 293.23 40.7166Z" fill="white" fill-opacity="0.5"/>
</svg>
