<svg width="173" height="54" viewBox="0 0 173 54" fill="none" xmlns="http://www.w3.org/2000/svg">
<g clip-path="url(#clip0_2_435)">
<path fill-rule="evenodd" clip-rule="evenodd" d="M57.936 26.053C57.7259 23.6758 55.8717 21.5056 53.3182 21.5056C50.7647 21.5056 48.946 23.6758 48.7014 26.053H57.935H57.936ZM58.9844 26.5253C58.9832 26.6566 58.9293 26.7822 58.8344 26.8745C58.7395 26.9668 58.6114 27.0182 58.478 27.0177H48.7014C48.946 29.3959 50.7647 31.5662 53.3182 31.5662C55.0668 31.5662 56.3619 30.9114 57.3413 29.5328C57.4835 29.345 57.6915 29.2219 57.9641 29.3354C58.0265 29.3629 58.0822 29.4031 58.1276 29.4534C58.173 29.5036 58.2071 29.5629 58.2274 29.6271C58.2478 29.6914 58.2541 29.7591 58.2458 29.8259C58.2376 29.8928 58.215 29.9571 58.1795 30.0146C57.2012 31.7041 55.2425 32.5298 53.3182 32.5298C50.0309 32.5298 47.6865 29.6368 47.6865 26.5359C47.6865 23.4349 50.0309 20.5409 53.3182 20.5409C56.6033 20.5409 58.979 23.4275 58.9855 26.5253H58.9844ZM70.8426 20.7818C71.1227 20.7818 71.3328 21.0238 71.3328 21.2647C71.3328 21.5406 71.1227 21.7465 70.8426 21.7465H68.219V31.876C68.2163 32.003 68.1639 32.124 68.0727 32.2137C67.9816 32.3035 67.8587 32.3551 67.7299 32.3578C67.6008 32.3554 67.4777 32.3039 67.3863 32.2141C67.295 32.1243 67.2424 32.0032 67.2396 31.876V21.7465H64.7217C64.657 21.7481 64.5926 21.7367 64.5324 21.7131C64.4723 21.6895 64.4177 21.654 64.3718 21.609C64.326 21.564 64.2899 21.5102 64.2658 21.451C64.2417 21.3918 64.23 21.3285 64.2315 21.2647C64.2315 21.0238 64.4416 20.7818 64.7217 20.7818H67.2396V17.0739C67.2396 16.8404 67.4013 16.6239 67.6351 16.5867C67.9604 16.5337 68.219 16.7555 68.219 17.0611V20.7818H70.8426ZM86.8273 25.6741V31.8081C86.8273 32.083 86.5827 32.2889 86.3371 32.2889C86.2724 32.2903 86.2082 32.2788 86.1482 32.2551C86.0881 32.2314 86.0336 32.196 85.9879 32.151C85.9422 32.1059 85.9062 32.0523 85.8822 31.9931C85.8581 31.934 85.8465 31.8707 85.8479 31.8071V25.6741C85.8479 23.6069 84.6584 21.5396 82.315 21.5396C79.3068 21.5396 78.0129 24.1237 78.1885 26.7768C78.1885 26.8458 78.223 27.1556 78.223 27.1907V31.7943C78.223 32.0278 78.0613 32.2443 77.8286 32.2825C77.5022 32.3345 77.2436 32.1127 77.2436 31.8071V11.652C77.2436 11.4111 77.4537 11.1702 77.7327 11.1702C78.0129 11.1702 78.223 11.4111 78.223 11.652V23.0561C79.0634 21.5746 80.5664 20.5749 82.315 20.5749C85.1831 20.5749 86.8273 23.0561 86.8273 25.6741ZM103.302 26.053C103.092 23.6758 101.238 21.5056 98.6844 21.5056C96.1309 21.5056 94.3122 23.6758 94.0676 26.053H103.301H103.302ZM104.351 26.5253C104.349 26.6566 104.296 26.7822 104.201 26.8745C104.106 26.9668 103.978 27.0182 103.844 27.0177H94.0676C94.3122 29.3959 96.1309 31.5662 98.6844 31.5662C100.434 31.5662 101.728 30.9114 102.708 29.5328C102.85 29.345 103.058 29.2219 103.33 29.3354C103.393 29.3629 103.448 29.4031 103.494 29.4534C103.539 29.5036 103.573 29.5629 103.594 29.6271C103.614 29.6914 103.62 29.7591 103.612 29.8259C103.604 29.8928 103.581 29.9571 103.546 30.0146C102.567 31.7041 100.609 32.5298 98.6844 32.5298C95.3972 32.5298 93.0538 29.6368 93.0538 26.5359C93.0538 23.4349 95.3972 20.5409 98.6844 20.5409C101.969 20.5409 104.345 23.4275 104.352 26.5253H104.351ZM116.349 21.2297C116.349 21.5406 116.174 21.7125 115.894 21.7465C113.026 22.1604 111.732 24.4686 111.732 27.1556V31.7604C111.732 31.9938 111.57 32.2093 111.337 32.2475C111.011 32.2995 110.752 32.0777 110.752 31.772V21.2764C110.752 21.0429 110.913 20.8275 111.147 20.7893C111.473 20.7373 111.732 20.9591 111.732 21.2647V23.401C112.536 22.0564 114.146 20.7829 115.824 20.7829C116.069 20.7829 116.349 20.9548 116.349 21.2297ZM131.354 26.053C131.144 23.6758 129.291 21.5056 126.737 21.5056C124.184 21.5056 122.365 23.6758 122.121 26.053H131.354ZM132.404 26.5253C132.402 26.6565 132.348 26.7819 132.253 26.8742C132.159 26.9664 132.031 27.018 131.897 27.0177H122.121C122.365 29.3959 124.184 31.5662 126.737 31.5662C128.486 31.5662 129.78 30.9114 130.759 29.5328C130.903 29.345 131.111 29.2219 131.383 29.3354C131.455 29.3661 131.518 29.4138 131.566 29.4744C131.615 29.535 131.647 29.6065 131.66 29.6825C131.682 29.7972 131.66 29.9159 131.599 30.0157C130.619 31.7031 128.661 32.5308 126.737 32.5308C123.449 32.5308 121.107 29.6368 121.107 26.5348C121.107 23.4349 123.449 20.5409 126.737 20.5409C130.021 20.5409 132.398 23.4275 132.405 26.5253H132.404ZM148.178 21.3517V31.876C148.178 32.152 147.934 32.3578 147.689 32.3578C147.624 32.3594 147.56 32.3481 147.5 32.3244C147.44 32.3008 147.385 32.2654 147.339 32.2204C147.293 32.1753 147.257 32.1216 147.233 32.0624C147.209 32.0032 147.197 31.9398 147.199 31.876V29.8777C146.395 31.4622 144.961 32.5998 143.141 32.5998C140.239 32.5998 138.63 30.1186 138.63 27.5005V21.3347C138.63 21.0928 138.839 20.8508 139.119 20.8508C139.399 20.8508 139.609 21.0928 139.609 21.3337V27.5005C139.609 29.5678 140.798 31.6351 143.141 31.6351C146.43 31.6351 147.199 28.6032 147.199 25.2603V21.3337C147.2 21.2587 147.219 21.185 147.253 21.1183C147.288 21.0515 147.338 20.9935 147.399 20.9488C147.46 20.9041 147.53 20.8738 147.605 20.8603C147.68 20.8468 147.757 20.8504 147.83 20.871C147.933 20.9034 148.023 20.9678 148.085 21.0544C148.148 21.1411 148.181 21.2453 148.178 21.3517ZM172.907 25.6402V31.806C172.907 32.083 172.663 32.2889 172.418 32.2889C172.354 32.2905 172.289 32.2791 172.229 32.2555C172.169 32.2318 172.114 32.1964 172.068 32.1514C172.023 32.1063 171.986 32.0526 171.962 31.9934C171.938 31.9342 171.927 31.8708 171.928 31.8071V25.6402C171.928 23.5729 170.74 21.5406 168.395 21.5406C165.458 21.5406 164.339 24.6405 164.339 27.0527V31.8071C164.339 32.083 164.094 32.2889 163.848 32.2889C163.784 32.2905 163.719 32.2791 163.659 32.2555C163.599 32.2318 163.545 32.1964 163.499 32.1513C163.453 32.1063 163.417 32.0525 163.393 31.9933C163.369 31.9341 163.358 31.8708 163.359 31.8071V25.6402C163.359 23.5729 162.17 21.5406 159.826 21.5406C156.853 21.5406 155.629 23.8488 155.733 26.9147C155.733 26.9837 155.769 27.1217 155.733 27.1556V31.7954C155.733 32.0289 155.573 32.2432 155.339 32.2814C155.012 32.3345 154.754 32.1116 154.754 31.8071V21.2774C154.754 21.044 154.915 20.8275 155.149 20.7893C155.475 20.7373 155.733 20.9591 155.733 21.2647V23.021C156.574 21.5406 158.078 20.5759 159.827 20.5759C161.82 20.5759 163.359 21.8155 163.988 23.6419C164.792 21.8505 166.366 20.5749 168.395 20.5749C171.263 20.5749 172.907 23.021 172.907 25.6402Z" fill="white" fill-opacity="0.5"/>
<path fill-rule="evenodd" clip-rule="evenodd" d="M0.895813 27.5525L17.2296 37.0633V0.856934L0.895813 27.5525Z" fill="white" fill-opacity="0.5"/>
<path fill-rule="evenodd" clip-rule="evenodd" d="M17.2308 0.856934V37.0633L33.5646 27.5525L17.2308 0.856934Z" fill="white" fill-opacity="0.5"/>
<path fill-rule="evenodd" clip-rule="evenodd" d="M17.2307 20.2405L0.895813 27.5524L17.2296 37.0633L33.5645 27.5535L17.2307 20.2405Z" fill="white" fill-opacity="0.5"/>
<path fill-rule="evenodd" clip-rule="evenodd" d="M17.2307 20.2405L0.895813 27.5524L17.2296 37.0633L17.2307 20.2405Z" fill="white" fill-opacity="0.5"/>
<path fill-rule="evenodd" clip-rule="evenodd" d="M0.895813 30.6035L17.2296 53.2759V40.109L0.895813 30.6035Z" fill="white" fill-opacity="0.5"/>
<path fill-rule="evenodd" clip-rule="evenodd" d="M17.2308 40.1091V53.2769L33.5754 30.6035L17.2308 40.1091Z" fill="white" fill-opacity="0.5"/>
</g>
<defs>
<clipPath id="clip0_2_435">
<rect width="172.389" height="53.062" fill="white" transform="translate(0.543457 0.421875)"/>
</clipPath>
</defs>
</svg>
