<svg width="29" height="30" viewBox="0 0 29 30" fill="none" xmlns="http://www.w3.org/2000/svg">
<path d="M5.98796 9.23486H22.5026C22.8372 9.23488 23.1681 9.30501 23.474 9.44073C23.7799 9.57646 24.0539 9.77477 24.2784 10.0229C24.503 10.271 24.673 10.5634 24.7776 10.8813C24.8822 11.1991 24.9191 11.5354 24.8858 11.8683L24.1672 19.0538C24.1081 19.6448 23.8316 20.1928 23.3912 20.5914C22.9508 20.9899 22.378 21.2106 21.7841 21.2107H10.3472C9.79324 21.2109 9.25637 21.0191 8.82796 20.668C8.39954 20.3169 8.10607 19.8281 7.9975 19.285L5.98796 9.23486Z" stroke="white" stroke-width="2.21092" stroke-linejoin="round"/>
<path d="M5.98796 9.23466L5.01792 5.3509C4.95305 5.09193 4.8035 4.86206 4.59303 4.69781C4.38256 4.53356 4.12324 4.44434 3.85627 4.44434H2.39522" stroke="white" stroke-width="2.21092" stroke-linecap="round" stroke-linejoin="round"/>
<path d="M9.5807 26.0007H11.9752" stroke="white" stroke-width="2.21092" stroke-linecap="round" stroke-linejoin="round"/>
<path d="M19.1613 26.0007H21.5558" stroke="white" stroke-width="2.21092" stroke-linecap="round" stroke-linejoin="round"/>
</svg>
