<svg width="135" height="30" viewBox="0 0 135 30" fill="none" xmlns="http://www.w3.org/2000/svg">
<path d="M9.09209 20.8186L0.862305 15.9619L9.08706 27.5563L17.321 15.9619L9.08706 20.8186H9.09209ZM9.21441 0.745605L0.987976 14.3994L9.21441 19.2645L17.4442 14.4044L9.21441 0.745605Z" fill="url(#paint0_linear_1204_151)"/>
<path d="M20.7074 24.0625C20.2033 24.0625 19.739 23.9365 19.3146 23.6844C18.9033 23.4324 18.5717 23.1008 18.3196 22.6895C18.0676 22.265 17.9416 21.8007 17.9416 21.2966V12.5016C17.9416 11.9975 18.0676 11.5399 18.3196 11.1286C18.5717 10.7041 18.9033 10.3659 19.3146 10.1138C19.739 9.86177 20.2033 9.73575 20.7074 9.73575H29.5025C30.0066 9.73575 30.4642 9.86177 30.8754 10.1138C31.2999 10.3659 31.6382 10.7041 31.8903 11.1286C32.1423 11.5399 32.2683 11.9975 32.2683 12.5016V21.2966C32.2683 21.8007 32.1423 22.265 31.8903 22.6895C31.6382 23.1008 31.2999 23.4324 30.8754 23.6844C30.4642 23.9365 30.0066 24.0625 29.5025 24.0625H20.7074ZM20.8069 21.416H29.3632C29.4295 21.416 29.4892 21.3961 29.5423 21.3563C29.5953 21.3033 29.6219 21.2436 29.6219 21.1773V12.621C29.6219 12.5547 29.5953 12.5016 29.5423 12.4618C29.4892 12.4087 29.4295 12.3822 29.3632 12.3822H20.8069C20.7406 12.3822 20.6809 12.4087 20.6278 12.4618C20.588 12.5016 20.5681 12.5547 20.5681 12.621V21.1773C20.5681 21.2436 20.588 21.3033 20.6278 21.3563C20.6809 21.3961 20.7406 21.416 20.8069 21.416ZM36.834 24.0625C36.33 24.0625 35.8723 23.9365 35.4611 23.6844C35.0498 23.4324 34.7182 23.1008 34.4661 22.6895C34.2141 22.2783 34.0881 21.8206 34.0881 21.3165V15.2675C34.0881 14.7634 34.2141 14.3057 34.4661 13.8945C34.7182 13.4833 35.0498 13.1516 35.4611 12.8996C35.8723 12.6475 36.33 12.5215 36.834 12.5215H45.7883V15.1282H36.9335C36.8672 15.1282 36.8075 15.1547 36.7545 15.2078C36.7147 15.2476 36.6948 15.3006 36.6948 15.367V21.217C36.6948 21.2834 36.7147 21.3431 36.7545 21.3961C36.8075 21.4359 36.8672 21.4558 36.9335 21.4558H45.8082V24.0625H36.834ZM50.1643 24.0625C49.6602 24.0625 49.2026 23.9365 48.7913 23.6844C48.3801 23.4324 48.0485 23.1008 47.7964 22.6895C47.5444 22.2783 47.4184 21.8206 47.4184 21.3165V15.2675C47.4184 14.7634 47.5444 14.3057 47.7964 13.8945C48.0485 13.4833 48.3801 13.1516 48.7913 12.8996C49.2026 12.6475 49.6602 12.5215 50.1643 12.5215H56.3925C56.8966 12.5215 57.3542 12.6475 57.7655 12.8996C58.19 13.1516 58.5216 13.4833 58.7604 13.8945C59.0124 14.3057 59.1384 14.7634 59.1384 15.2675V19.6053H50.025V21.217C50.025 21.2834 50.0449 21.3431 50.0847 21.3961C50.1378 21.4359 50.1975 21.4558 50.2638 21.4558H59.1384V24.0625H50.1643ZM50.025 17.2573H56.5318V15.367C56.5318 15.3006 56.5052 15.2476 56.4522 15.2078C56.4124 15.1547 56.3593 15.1282 56.293 15.1282H50.2638C50.1975 15.1282 50.1378 15.1547 50.0847 15.2078C50.0449 15.2476 50.025 15.3006 50.025 15.367V17.2573ZM63.9614 24.0625C63.4574 24.0625 62.9931 23.9365 62.5686 23.6844C62.1573 23.4324 61.8257 23.1008 61.5736 22.6895C61.3349 22.2783 61.2155 21.8206 61.2155 21.3165V16.9787H70.3289V15.367C70.3289 15.3006 70.3024 15.2476 70.2493 15.2078C70.2095 15.1547 70.1564 15.1282 70.0901 15.1282H61.2155V12.5215H70.1896C70.6937 12.5215 71.1513 12.6475 71.5626 12.8996C71.9871 13.1516 72.3187 13.4833 72.5575 13.8945C72.8095 14.3057 72.9356 14.7634 72.9356 15.2675V24.0625H63.9614ZM64.0609 21.4558H70.3289V19.3267H63.8222V21.217C63.8222 21.2834 63.8421 21.3431 63.8818 21.3961C63.9349 21.4359 63.9946 21.4558 64.0609 21.4558ZM74.8576 24.0625V12.5215H83.8317C84.3358 12.5215 84.7935 12.6475 85.2047 12.8996C85.6292 13.1516 85.9608 13.4833 86.1996 13.8945C86.4517 14.3057 86.5777 14.7634 86.5777 15.2675V24.0625H83.971V15.367C83.971 15.3006 83.9445 15.2476 83.8914 15.2078C83.8516 15.1547 83.7986 15.1282 83.7322 15.1282H77.7031C77.6367 15.1282 77.577 15.1547 77.524 15.2078C77.4842 15.2476 77.4643 15.3006 77.4643 15.367V24.0625H74.8576Z" fill="white" fill-opacity="0.6"/>
<path d="M88.7523 24.0625V9.73575H91.6376L100.433 20.2022V9.73575H103.079V24.0625H100.194L91.3789 13.5761V24.0625H88.7523ZM105.348 24.0625V9.73575H118.541V12.3822H107.995V15.5659H116.471V18.2323H107.995V24.0625H105.348ZM125.016 24.0625V12.3822H119.166V9.73575H133.493V12.3822H127.662V24.0625H125.016Z" fill="white"/>
<defs>
<linearGradient id="paint0_linear_1204_151" x1="0.862305" y1="0.745605" x2="21.0134" y2="1.23055" gradientUnits="userSpaceOnUse">
<stop offset="0.183111" stop-color="#FF56F6"/>
<stop offset="0.432593" stop-color="#B936EE"/>
<stop offset="0.854443" stop-color="#3BACE2"/>
<stop offset="1" stop-color="#406AFF"/>
</linearGradient>
</defs>
</svg>
